<svg xmlns="http://www.w3.org/2000/svg" viewBox="0 0 512 512">
  <rect width="512" height="512" rx="108" fill="#09090b"/>
  <rect x="24" y="24" width="464" height="464" rx="90" fill="#09090b" stroke="#22c55e" stroke-width="3" stroke-opacity="0.2"/>
  <g transform="translate(256,256)">
    <ellipse cx="0" cy="20" rx="100" ry="68" fill="#22c55e" opacity="0.12"/>
    <path d="M-60,-40 C-60,-82 60,-82 60,-40 L60,-10 C60,8 40,30 20,40 L20,55 C20,60 15,65 0,65 C-15,65 -20,60 -20,55 L-20,40 C-40,30 -60,8 -60,-10 Z" fill="#22c55e" opacity="0.9"/>
    <ellipse cx="0" cy="-40" rx="60" ry="42" fill="#22c55e"/>
    <circle cx="-18" cy="-46" r="8" fill="#09090b" opacity="0.7"/>
    <circle cx="18" cy="-46" r="8" fill="#09090b" opacity="0.7"/>
    <ellipse cx="0" cy="-28" rx="12" ry="8" fill="#16a34a"/>
    <circle cx="-55" cy="-15" r="18" fill="#22c55e" opacity="0.85"/>
    <circle cx="55" cy="-15" r="18" fill="#22c55e" opacity="0.85"/>
    <ellipse cx="0" cy="64" rx="40" ry="6" fill="#22c55e" opacity="0.08"/>
  </g>
  <text x="256" y="420" text-anchor="middle" font-family="system-ui,-apple-system,sans-serif" font-weight="700" font-size="72" fill="#fafafa" letter-spacing="-2">Fin</text>
</svg>
